<svg transform="scale(1)" id="_0717_Hack_3" data-name="0717_Hack 3" xmlns="http://www.w3.org/2000/svg" viewBox="0 0 500 500" class="show_show__wrapper__graphic__5Waiy "><title>React</title><defs><style>
      .cls-1 {
        fill: #fff;
      }

      .cls-1, .cls-2 {
        stroke-width: 0px;
      }

      .cls-2 {
        fill: #231f20;
      }
    </style></defs><g id="Bricks"><polygon class="cls-2" points="143.11 213.3 150.85 206.89 192.15 206.27 195.66 202.76 195.66 164.59 192.15 161.08 194.56 157.74 244.7 157.56 248.21 154.05 252.13 154.05 255.64 157.56 303.15 157.74 308.19 161.08 304.68 164.59 304.68 202.76 308.19 206.27 348.87 206.61 357.23 213.3 357.23 251.47 354.87 253.75 308.19 258.5 304.68 262.01 304.68 300.18 299.43 307.19 255.64 307.21 244.7 307.21 199.71 306.62 195.66 300.18 195.66 262.01 192.15 258.5 147.13 258.33 143.11 251.47 143.11 213.3"></polygon><g><g><path class="cls-1" d="M297.25,108.85h-94.17l-3.51-3.51v-38.17l3.51-3.51h94.17l3.51,3.51v38.17l-3.51,3.51Z"></path><path class="cls-2" d="M297.25,109.6h-94.17c-.2,0-.39-.08-.53-.22l-3.51-3.51c-.14-.14-.22-.33-.22-.53v-38.17c0-.2.08-.39.22-.53l3.51-3.51c.14-.14.33-.22.53-.22h94.17c.2,0,.39.08.53.22l3.51,3.51c.14.14.22.33.22.53v38.17c0,.2-.08.39-.22.53l-3.51,3.51c-.14.14-.33.22-.53.22ZM203.4,108.1h93.54l3.07-3.07v-37.55l-3.07-3.07h-93.54l-3.07,3.07v37.55l3.07,3.07Z"></path></g><g><path class="cls-1" d="M402.35,108.85h-94.17l-3.51-3.51v-38.17l3.51-3.51h94.17l3.51,3.51v38.17l-3.51,3.51Z"></path><path class="cls-2" d="M402.35,109.6h-94.17c-.2,0-.39-.08-.53-.22l-3.51-3.51c-.14-.14-.22-.33-.22-.53v-38.17c0-.2.08-.39.22-.53l3.51-3.51c.14-.14.33-.22.53-.22h94.17c.2,0,.39.08.53.22l3.51,3.51c.14.14.22.33.22.53v38.17c0,.2-.08.39-.22.53l-3.51,3.51c-.14.14-.33.22-.53.22ZM308.5,108.1h93.54l3.07-3.07v-37.55l-3.07-3.07h-93.54l-3.07,3.07v37.55l3.07,3.07Z"></path></g><g><path class="cls-1" d="M139.6,157.56H45.44l-3.51-3.51v-38.17l3.51-3.51h94.17l3.51,3.51v38.17l-3.51,3.51Z"></path><path class="cls-2" d="M139.6,158.31H45.44c-.2,0-.39-.08-.53-.22l-3.51-3.51c-.14-.14-.22-.33-.22-.53v-38.17c0-.2.08-.39.22-.53l3.51-3.51c.14-.14.33-.22.53-.22h94.17c.2,0,.39.08.53.22l3.51,3.51c.14.14.22.33.22.53v38.17c0,.2-.08.39-.22.53l-3.51,3.51c-.14.14-.33.22-.53.22ZM45.75,156.81h93.54l3.07-3.07v-37.55l-3.07-3.07H45.75l-3.07,3.07v37.55l3.07,3.07Z"></path></g><g><path class="cls-1" d="M244.7,157.56h-94.17l-3.51-3.51v-38.17l3.51-3.51h94.17l3.51,3.51v38.17l-3.51,3.51Z"></path><path class="cls-2" d="M244.7,158.31h-94.17c-.2,0-.39-.08-.53-.22l-3.51-3.51c-.14-.14-.22-.33-.22-.53v-38.17c0-.2.08-.39.22-.53l3.51-3.51c.14-.14.33-.22.53-.22h94.17c.2,0,.39.08.53.22l3.51,3.51c.14.14.22.33.22.53v38.17c0,.2-.08.39-.22.53l-3.51,3.51c-.14.14-.33.22-.53.22ZM150.85,156.81h93.54l3.07-3.07v-37.55l-3.07-3.07h-93.54l-3.07,3.07v37.55l3.07,3.07Z"></path></g><g><path class="cls-1" d="M349.8,157.56h-94.17l-3.51-3.51v-38.17l3.51-3.51h94.17l3.51,3.51v38.17l-3.51,3.51Z"></path><path class="cls-2" d="M349.8,158.31h-94.17c-.2,0-.39-.08-.53-.22l-3.51-3.51c-.14-.14-.22-.33-.22-.53v-38.17c0-.2.08-.39.22-.53l3.51-3.51c.14-.14.33-.22.53-.22h94.17c.2,0,.39.08.53.22l3.51,3.51c.14.14.22.33.22.53v38.17c0,.2-.08.39-.22.53l-3.51,3.51c-.14.14-.33.22-.53.22ZM255.95,156.81h93.54l3.07-3.07v-37.55l-3.07-3.07h-93.54l-3.07,3.07v37.55l3.07,3.07Z"></path></g><g><path class="cls-1" d="M454.9,157.56h-94.17l-3.51-3.51v-38.17l3.51-3.51h94.17l3.51,3.51v38.17l-3.51,3.51Z"></path><path class="cls-2" d="M454.9,158.31h-94.17c-.2,0-.39-.08-.53-.22l-3.51-3.51c-.14-.14-.22-.33-.22-.53v-38.17c0-.2.08-.39.22-.53l3.51-3.51c.14-.14.33-.22.53-.22h94.17c.2,0,.39.08.53.22l3.51,3.51c.14.14.22.33.22.53v38.17c0,.2-.08.39-.22.53l-3.51,3.51c-.14.14-.33.22-.53.22ZM361.05,156.81h93.54l3.07-3.07v-37.55l-3.07-3.07h-93.54l-3.07,3.07v37.55l3.07,3.07Z"></path></g><g><path class="cls-1" d="M192.15,206.27h-94.17l-3.51-3.51v-38.17l3.51-3.51h94.17l3.51,3.51v38.17l-3.51,3.51Z"></path><path class="cls-2" d="M192.15,207.02h-94.17c-.2,0-.39-.08-.53-.22l-3.51-3.51c-.14-.14-.22-.33-.22-.53v-38.17c0-.2.08-.39.22-.53l3.51-3.51c.14-.14.33-.22.53-.22h94.17c.2,0,.39.08.53.22l3.51,3.51c.14.14.22.33.22.53v38.17c0,.2-.08.39-.22.53l-3.51,3.51c-.14.14-.33.22-.53.22ZM98.3,205.52h93.54l3.07-3.07v-37.55l-3.07-3.07h-93.54l-3.07,3.07v37.55l3.07,3.07Z"></path></g><g><path class="cls-1" d="M402.35,206.27h-94.17l-3.51-3.51v-38.17l3.51-3.51h94.17l3.51,3.51v38.17l-3.51,3.51Z"></path><path class="cls-2" d="M402.35,207.02h-94.17c-.2,0-.39-.08-.53-.22l-3.51-3.51c-.14-.14-.22-.33-.22-.53v-38.17c0-.2.08-.39.22-.53l3.51-3.51c.14-.14.33-.22.53-.22h94.17c.2,0,.39.08.53.22l3.51,3.51c.14.14.22.33.22.53v38.17c0,.2-.08.39-.22.53l-3.51,3.51c-.14.14-.33.22-.53.22ZM308.5,205.52h93.54l3.07-3.07v-37.55l-3.07-3.07h-93.54l-3.07,3.07v37.55l3.07,3.07Z"></path></g><g><path class="cls-1" d="M139.6,254.98H45.44l-3.51-3.51v-38.17l3.51-3.51h94.17l3.51,3.51v38.17l-3.51,3.51Z"></path><path class="cls-2" d="M139.6,255.73H45.44c-.2,0-.39-.08-.53-.22l-3.51-3.51c-.14-.14-.22-.33-.22-.53v-38.17c0-.2.08-.39.22-.53l3.51-3.51c.14-.14.33-.22.53-.22h94.17c.2,0,.39.08.53.22l3.51,3.51c.14.14.22.33.22.53v38.17c0,.2-.08.39-.22.53l-3.51,3.51c-.14.14-.33.22-.53.22ZM45.75,254.23h93.54l3.07-3.07v-37.55l-3.07-3.07H45.75l-3.07,3.07v37.55l3.07,3.07Z"></path></g><g><path class="cls-1" d="M454.9,254.98h-94.17l-3.51-3.51v-38.17l3.51-3.51h94.17l3.51,3.51v38.17l-3.51,3.51Z"></path><path class="cls-2" d="M454.9,255.73h-94.17c-.2,0-.39-.08-.53-.22l-3.51-3.51c-.14-.14-.22-.33-.22-.53v-38.17c0-.2.08-.39.22-.53l3.51-3.51c.14-.14.33-.22.53-.22h94.17c.2,0,.39.08.53.22l3.51,3.51c.14.14.22.33.22.53v38.17c0,.2-.08.39-.22.53l-3.51,3.51c-.14.14-.33.22-.53.22ZM361.05,254.23h93.54l3.07-3.07v-37.55l-3.07-3.07h-93.54l-3.07,3.07v37.55l3.07,3.07Z"></path></g><g><path class="cls-1" d="M192.15,303.69h-94.17l-3.51-3.51v-38.17l3.51-3.51h94.17l3.51,3.51v38.17l-3.51,3.51Z"></path><path class="cls-2" d="M192.15,304.44h-94.17c-.2,0-.39-.08-.53-.22l-3.51-3.51c-.14-.14-.22-.33-.22-.53v-38.17c0-.2.08-.39.22-.53l3.51-3.51c.14-.14.33-.22.53-.22h94.17c.2,0,.39.08.53.22l3.51,3.51c.14.14.22.33.22.53v38.17c0,.2-.08.39-.22.53l-3.51,3.51c-.14.14-.33.22-.53.22ZM98.3,302.94h93.54l3.07-3.07v-37.55l-3.07-3.07h-93.54l-3.07,3.07v37.55l3.07,3.07Z"></path></g><g><path class="cls-1" d="M402.35,303.69h-94.17l-3.51-3.51v-38.17l3.51-3.51h94.17l3.51,3.51v38.17l-3.51,3.51Z"></path><path class="cls-2" d="M402.35,304.44h-94.17c-.2,0-.39-.08-.53-.22l-3.51-3.51c-.14-.14-.22-.33-.22-.53v-38.17c0-.2.08-.39.22-.53l3.51-3.51c.14-.14.33-.22.53-.22h94.17c.2,0,.39.08.53.22l3.51,3.51c.14.14.22.33.22.53v38.17c0,.2-.08.39-.22.53l-3.51,3.51c-.14.14-.33.22-.53.22ZM308.5,302.94h93.54l3.07-3.07v-37.55l-3.07-3.07h-93.54l-3.07,3.07v37.55l3.07,3.07Z"></path></g><g><path class="cls-1" d="M139.6,352.4H45.44l-3.51-3.51v-38.17l3.51-3.51h94.17l3.51,3.51v38.17l-3.51,3.51Z"></path><path class="cls-2" d="M139.6,353.15H45.44c-.2,0-.39-.08-.53-.22l-3.51-3.51c-.14-.14-.22-.33-.22-.53v-38.17c0-.2.08-.39.22-.53l3.51-3.51c.14-.14.33-.22.53-.22h94.17c.2,0,.39.08.53.22l3.51,3.51c.14.14.22.33.22.53v38.17c0,.2-.08.39-.22.53l-3.51,3.51c-.14.14-.33.22-.53.22ZM45.75,351.65h93.54l3.07-3.07v-37.55l-3.07-3.07H45.75l-3.07,3.07v37.55l3.07,3.07Z"></path></g><g><path class="cls-1" d="M244.7,352.4h-94.17l-3.51-3.51v-38.17l3.51-3.51h94.17l3.51,3.51v38.17l-3.51,3.51Z"></path><path class="cls-2" d="M244.7,353.15h-94.17c-.2,0-.39-.08-.53-.22l-3.51-3.51c-.14-.14-.22-.33-.22-.53v-38.17c0-.2.08-.39.22-.53l3.51-3.51c.14-.14.33-.22.53-.22h94.17c.2,0,.39.08.53.22l3.51,3.51c.14.14.22.33.22.53v38.17c0,.2-.08.39-.22.53l-3.51,3.51c-.14.14-.33.22-.53.22ZM150.85,351.65h93.54l3.07-3.07v-37.55l-3.07-3.07h-93.54l-3.07,3.07v37.55l3.07,3.07Z"></path></g><g><path class="cls-1" d="M349.8,352.4h-94.17l-3.51-3.51v-38.17l3.51-3.51h94.17l3.51,3.51v38.17l-3.51,3.51Z"></path><path class="cls-2" d="M349.8,353.15h-94.17c-.2,0-.39-.08-.53-.22l-3.51-3.51c-.14-.14-.22-.33-.22-.53v-38.17c0-.2.08-.39.22-.53l3.51-3.51c.14-.14.33-.22.53-.22h94.17c.2,0,.39.08.53.22l3.51,3.51c.14.14.22.33.22.53v38.17c0,.2-.08.39-.22.53l-3.51,3.51c-.14.14-.33.22-.53.22ZM255.95,351.65h93.54l3.07-3.07v-37.55l-3.07-3.07h-93.54l-3.07,3.07v37.55l3.07,3.07Z"></path></g><g><path class="cls-1" d="M454.9,352.4h-94.17l-3.51-3.51v-38.17l3.51-3.51h94.17l3.51,3.51v38.17l-3.51,3.51Z"></path><path class="cls-2" d="M454.9,353.15h-94.17c-.2,0-.39-.08-.53-.22l-3.51-3.51c-.14-.14-.22-.33-.22-.53v-38.17c0-.2.08-.39.22-.53l3.51-3.51c.14-.14.33-.22.53-.22h94.17c.2,0,.39.08.53.22l3.51,3.51c.14.14.22.33.22.53v38.17c0,.2-.08.39-.22.53l-3.51,3.51c-.14.14-.33.22-.53.22ZM361.05,351.65h93.54l3.07-3.07v-37.55l-3.07-3.07h-93.54l-3.07,3.07v37.55l3.07,3.07Z"></path></g><g><path class="cls-1" d="M192.15,401.11h-94.17l-3.51-3.51v-38.17l3.51-3.51h94.17l3.51,3.51v38.17l-3.51,3.51Z"></path><path class="cls-2" d="M192.15,401.86h-94.17c-.2,0-.39-.08-.53-.22l-3.51-3.51c-.14-.14-.22-.33-.22-.53v-38.17c0-.2.08-.39.22-.53l3.51-3.51c.14-.14.33-.22.53-.22h94.17c.2,0,.39.08.53.22l3.51,3.51c.14.14.22.33.22.53v38.17c0,.2-.08.39-.22.53l-3.51,3.51c-.14.14-.33.22-.53.22ZM98.3,400.36h93.54l3.07-3.07v-37.55l-3.07-3.07h-93.54l-3.07,3.07v37.55l3.07,3.07Z"></path></g><g><path class="cls-1" d="M297.25,401.11h-94.17l-3.51-3.51v-38.17l3.51-3.51h94.17l3.51,3.51v38.17l-3.51,3.51Z"></path><path class="cls-2" d="M297.25,401.86h-94.17c-.2,0-.39-.08-.53-.22l-3.51-3.51c-.14-.14-.22-.33-.22-.53v-38.17c0-.2.08-.39.22-.53l3.51-3.51c.14-.14.33-.22.53-.22h94.17c.2,0,.39.08.53.22l3.51,3.51c.14.14.22.33.22.53v38.17c0,.2-.08.39-.22.53l-3.51,3.51c-.14.14-.33.22-.53.22ZM203.4,400.36h93.54l3.07-3.07v-37.55l-3.07-3.07h-93.54l-3.07,3.07v37.55l3.07,3.07Z"></path></g><g><path class="cls-1" d="M402.35,401.11h-94.17l-3.51-3.51v-38.17l3.51-3.51h94.17l3.51,3.51v38.17l-3.51,3.51Z"></path><path class="cls-2" d="M402.35,401.86h-94.17c-.2,0-.39-.08-.53-.22l-3.51-3.51c-.14-.14-.22-.33-.22-.53v-38.17c0-.2.08-.39.22-.53l3.51-3.51c.14-.14.33-.22.53-.22h94.17c.2,0,.39.08.53.22l3.51,3.51c.14.14.22.33.22.53v38.17c0,.2-.08.39-.22.53l-3.51,3.51c-.14.14-.33.22-.53.22ZM308.5,400.36h93.54l3.07-3.07v-37.55l-3.07-3.07h-93.54l-3.07,3.07v37.55l3.07,3.07Z"></path></g></g><path class="cls-2" d="M102.27,118.21h-52.58c-.41,0-.75-.34-.75-.75s.34-.75.75-.75h52.58c.41,0,.75.34.75.75s-.34.75-.75.75Z"></path><g><polyline class="cls-1" points="150.85 128.88 150.85 118.6 188.56 118.6"></polyline><path class="cls-2" d="M150.85,129.63c-.41,0-.75-.34-.75-.75v-10.29c0-.41.34-.75.75-.75h37.72c.41,0,.75.34.75.75s-.34.75-.75.75h-36.97v9.54c0,.41-.34.75-.75.75Z"></path></g><path class="cls-2" d="M308.58,119.92h-48.58c-.41,0-.75-.34-.75-.75s.34-.75.75-.75h48.58c.41,0,.75.34.75.75s-.34.75-.75.75Z"></path><path class="cls-2" d="M450.88,135.92c-.41,0-.75-.34-.75-.75v-15.82h-46.68c-.41,0-.75-.34-.75-.75s.34-.75.75-.75h47.43c.41,0,.75.34.75.75v16.57c0,.41-.34.75-.75.75Z"></path><path class="cls-2" d="M387.44,119.35h-18.86c-.41,0-.75-.34-.75-.75s.34-.75.75-.75h18.86c.41,0,.75.34.75.75s-.34.75-.75.75Z"></path><path class="cls-2" d="M189.71,185.64c-.41,0-.75-.34-.75-.75v-18.68h-66.69c-.41,0-.75-.34-.75-.75s.34-.75.75-.75h67.44c.41,0,.75.34.75.75v19.43c0,.41-.34.75-.75.75Z"></path><path class="cls-2" d="M419.45,217.64h-53.72c-.41,0-.75-.34-.75-.75s.34-.75.75-.75h53.72c.41,0,.75.34.75.75s-.34.75-.75.75Z"></path><path class="cls-2" d="M135.42,237.65c-.41,0-.75-.34-.75-.75v-20.97h-65.54c-.41,0-.75-.34-.75-.75s.34-.75.75-.75h66.29c.41,0,.75.34.75.75v21.72c0,.41-.34.75-.75.75Z"></path><path class="cls-2" d="M229.71,314.8h-27.43c-.41,0-.75-.34-.75-.75s.34-.75.75-.75h27.43c.41,0,.75.34.75.75s-.34.75-.75.75Z"></path><path class="cls-2" d="M191.99,314.8h-36.58c-.41,0-.75-.34-.75-.75s.34-.75.75-.75h36.58c.41,0,.75.34.75.75s-.34.75-.75.75Z"></path><path class="cls-2" d="M115.99,313.65H50.26c-.41,0-.75-.34-.75-.75s.34-.75.75-.75h65.72c.41,0,.75.34.75.75s-.34.75-.75.75Z"></path><path class="cls-2" d="M346.29,333.08c-.41,0-.75-.34-.75-.75v-18.68h-83.26c-.41,0-.75-.34-.75-.75s.34-.75.75-.75h84.01c.41,0,.75.34.75.75v19.43c0,.41-.34.75-.75.75Z"></path><path class="cls-2" d="M452.59,333.08c-.41,0-.75-.34-.75-.75v-18.68h-83.26c-.41,0-.75-.34-.75-.75s.34-.75.75-.75h84.01c.41,0,.75.34.75.75v19.43c0,.41-.34.75-.75.75Z"></path><path class="cls-2" d="M165.7,362.8h-62.29c-.41,0-.75-.34-.75-.75s.34-.75.75-.75h62.29c.41,0,.75.34.75.75s-.34.75-.75.75Z"></path><path class="cls-2" d="M273.14,362.8h-62.29c-.41,0-.75-.34-.75-.75s.34-.75.75-.75h62.29c.41,0,.75.34.75.75s-.34.75-.75.75Z"></path><path class="cls-2" d="M341.15,362.8h-27.43c-.41,0-.75-.34-.75-.75s.34-.75.75-.75h27.43c.41,0,.75.34.75.75s-.34.75-.75.75Z"></path><path class="cls-2" d="M396.59,362.8h-45.72c-.41,0-.75-.34-.75-.75s.34-.75.75-.75h45.72c.41,0,.75.34.75.75s-.34.75-.75.75Z"></path><path class="cls-2" d="M342.61,71.11h-29.32c-.41,0-.75-.34-.75-.75s.34-.75.75-.75h29.32c.41,0,.75.34.75.75s-.34.75-.75.75Z"></path><g><polyline class="cls-1" points="293.27 87.46 293.27 70.36 264.93 70.36"></polyline><path class="cls-2" d="M293.27,88.21c-.41,0-.75-.34-.75-.75v-16.35h-27.59c-.41,0-.75-.34-.75-.75s.34-.75.75-.75h28.34c.41,0,.75.34.75.75v17.1c0,.41-.34.75-.75.75Z"></path></g></g><g id="Hand"><g><path class="cls-1" d="M156.21,251.58c-3.41.34-6.19,2.32-7.17,4.96-2.14,5.78-3.64,15.37-.84,16.6,3.94,1.72,4.65-4.31,4.65-4.31,0,0-2.16,11.5,1.42,12.07s6.1-10.06,6.1-10.06c0,0-2.51,11.2,2.15,12.63,4.65,1.44,7.88-13.78,7.88-13.78,0,0-2.06,12.35,1.88,12.35,4.86,0,5.71-10.57,7.43-20.39.95-5.44,9.53-2.01,7.16-3.73-7.88-5.74-17.74-7.65-30.66-6.34Z"></path><path class="cls-2" d="M163.15,284.32c-.28,0-.56-.04-.84-.13-2.56-.79-3.3-3.8-3.37-6.8-1.17,2.46-2.77,4.58-4.78,4.25-.66-.11-1.22-.47-1.64-1.08-1.07-1.51-1.16-4.49-.99-7.1-.15.12-.31.23-.47.33-.63.36-1.69.66-3.15.03-3.64-1.59-1.47-12.39.43-17.54,1.09-2.94,4.15-5.08,7.8-5.45h0c13.35-1.35,23.26.71,31.18,6.48.29.21.9.66.67,1.31-.24.66-.9.62-1.9.57-2.48-.13-5.17-.06-5.64,2.59-.25,1.44-.49,2.9-.72,4.33-1.43,8.95-2.67,16.68-7.46,16.68-.73,0-1.37-.31-1.87-.89-.89-1.05-1.22-3-1.29-5.04-1.08,2.95-2.58,5.92-4.41,7-.51.3-1.04.45-1.56.45ZM160.37,270.09c.06,0,.11,0,.17.02.4.09.65.49.56.89-.65,2.93-1.63,10.74,1.64,11.75.4.13.79.07,1.21-.18,2.77-1.63,5.06-9.96,5.72-13.04.08-.4.48-.66.87-.58.4.08.67.46.6.86-.57,3.44-.97,9.49.42,11.12.21.25.43.36.72.36,3.5,0,4.76-7.84,5.97-15.42.23-1.44.47-2.91.72-4.36.62-3.57,3.99-3.91,6.19-3.88-7.4-4.87-16.62-6.56-28.88-5.32-3.08.31-5.65,2.07-6.54,4.48-2.46,6.64-3.1,14.83-1.24,15.65.71.31,1.3.33,1.8.05.95-.54,1.47-2.08,1.7-3.1.06-.34.1-.59.12-.71.07-.4.46-.66.85-.6.4.06.68.43.63.83-.01.1-.05.39-.14.79-.44,2.72-1,8.19.27,9.99.25.36.49.43.66.46,1.97.32,4.27-5.36,5.25-9.49.08-.34.39-.58.73-.58Z"></path></g><g><path class="cls-1" d="M348.81,251.58c3.41.34,6.19,2.32,7.17,4.96,2.14,5.78,3.64,15.37.84,16.6-3.94,1.72-4.65-4.31-4.65-4.31,0,0,2.16,11.5-1.42,12.07s-6.1-10.06-6.1-10.06c0,0,2.51,11.2-2.15,12.63s-7.88-13.78-7.88-13.78c0,0,2.06,12.35-1.88,12.35-4.86,0-5.71-10.57-7.43-20.39-.95-5.44-9.53-2.01-7.16-3.73,7.88-5.74,17.74-7.65,30.66-6.34Z"></path><path class="cls-2" d="M341.87,284.32c-.53,0-1.05-.15-1.56-.45-1.83-1.08-3.33-4.06-4.41-7-.07,2.05-.41,4-1.29,5.04-.49.58-1.14.89-1.87.89-4.78,0-6.02-7.73-7.46-16.68-.23-1.44-.46-2.89-.72-4.33-.46-2.66-3.15-2.73-5.64-2.59-1,.06-1.66.09-1.9-.57-.23-.65.38-1.09.67-1.31,7.92-5.77,17.83-7.83,31.18-6.48h0c3.65.37,6.71,2.51,7.8,5.45,1.91,5.16,4.07,15.95.43,17.54-1.45.63-2.51.33-3.15-.03-.17-.1-.33-.21-.47-.33.17,2.61.08,5.59-.99,7.1-.43.61-.98.97-1.64,1.08-2,.33-3.61-1.8-4.78-4.25-.07,3-.81,6.01-3.37,6.8-.28.09-.56.13-.84.13ZM334.62,268.94c.35,0,.66.24.73.59.65,3.07,2.95,11.41,5.72,13.04.42.25.81.31,1.21.18,3.27-1.01,2.29-8.83,1.64-11.75-.09-.4.16-.8.56-.89.4-.1.8.16.9.56.98,4.14,3.28,9.82,5.25,9.49.16-.03.41-.1.66-.46,1.27-1.8.71-7.27.27-9.99-.09-.4-.12-.69-.14-.79-.05-.4.23-.77.63-.83.39-.06.78.2.85.6.02.12.07.37.12.71.22,1.02.75,2.55,1.7,3.1.5.28,1.08.27,1.8-.05,1.87-.82,1.22-9-1.24-15.65-.89-2.41-3.46-4.16-6.54-4.48h0c-12.25-1.24-21.48.45-28.88,5.32,2.18-.03,5.57.3,6.19,3.88.25,1.45.49,2.91.72,4.36,1.21,7.58,2.47,15.42,5.97,15.42.29,0,.51-.11.72-.36,1.38-1.63.99-7.69.42-11.12-.07-.4.2-.78.6-.86.05,0,.09-.01.14-.01Z"></path></g></g><g id="Head"><g><path class="cls-1" d="M290.65,243.47c-.3,9.39-3.13,19.49-8.46,22.92-9.42,6.07-28.43-16.92-35.72-16.35h-.02c-6.08.53-24.37,25.15-30.37,13.34-4.25-8.34-5.83-15.38-5.88-21.2-.12-10.86,5.06-17.51,8.27-20.52,19.05-17.91,46.1-19.43,68.39,4.76,2.77,3.01,4.03,9.82,3.79,17.05Z"></path><path class="cls-2" d="M278.55,268.16c-5.71,0-12.88-5.33-19.36-10.16-5.14-3.82-10.01-7.43-12.65-7.22-1.87.16-5.44,3.23-9.22,6.47-5.98,5.13-12.75,10.94-17.72,9.96-1.77-.35-3.17-1.53-4.18-3.5-3.9-7.65-5.9-14.9-5.96-21.53-.12-11.28,5.28-18.05,8.51-21.07,9.79-9.2,21.73-14.04,33.6-13.61,12.79.46,25.18,6.82,35.86,18.41,2.76,3,4.25,9.58,3.99,17.58h0c-.27,8.41-2.74,19.62-8.8,23.53-1.23.79-2.6,1.14-4.05,1.14ZM246.72,249.28c3.24,0,7.94,3.5,13.36,7.52,7.75,5.76,16.53,12.3,21.71,8.96,5.22-3.36,7.84-13.63,8.12-22.31h0c.25-7.51-1.13-13.84-3.59-16.52-10.4-11.28-22.43-17.48-34.81-17.92-11.65-.43-22.89,4.15-32.52,13.2-3.05,2.86-8.15,9.26-8.03,19.97.05,6.4,2.01,13.42,5.8,20.87.79,1.56,1.82,2.45,3.13,2.71,4.24.84,11.01-4.96,16.45-9.62,4.31-3.7,7.72-6.63,10.06-6.83.11,0,.22-.01.33-.01Z"></path></g><g><ellipse class="cls-2" cx="233.62" cy="243.97" rx="2.58" ry="4.64"></ellipse><ellipse class="cls-2" cx="265.85" cy="243.97" rx="2.58" ry="4.64"></ellipse></g><path class="cls-2" d="M249.86,265.22s-.06,0-.1,0c-.06,0-6.28-.89-5.65-8.24.34-3.77,4.16-15.53,4.32-16.03.13-.39.55-.61.95-.48.39.13.61.55.48.95-.04.12-3.93,12.1-4.25,15.69-.5,5.93,4.15,6.59,4.35,6.62.41.05.7.43.65.84-.05.38-.37.65-.74.65Z"></path><path class="cls-2" d="M290.65,244.21s-.04,0-.06,0c-16.25-1.3-30.95-12.63-33.89-15.02-10.32,9.91-17.95,10.02-18.28,10.02-.27,0-.52-.14-.65-.38-.13-.23-.13-.52,0-.75.65-1.1,1.64-3.32,2.54-5.47-7.51,6.62-21.4,10.01-30.09,10.31-.2,0-.4-.07-.54-.21-.15-.14-.23-.33-.23-.53-.12-11.28,5.28-18.05,8.51-21.08,9.79-9.2,21.73-14.04,33.6-13.61,12.79.46,25.18,6.82,35.86,18.41,2.76,3,4.25,9.58,3.99,17.58,0,.21-.1.4-.25.54-.14.12-.32.19-.5.19ZM256.66,227.44c.17,0,.35.06.49.18.16.13,15.5,13.28,32.77,15.03.13-7.16-1.24-13.14-3.61-15.72-10.4-11.28-22.43-17.48-34.81-17.92-11.65-.43-22.89,4.15-32.52,13.2-2.98,2.79-7.9,8.95-8.03,19.19,11.1-.59,25.85-5.54,31-12.77.22-.31.63-.4.97-.23.33.18.48.58.34.93-.24.62-2.09,5.36-3.5,8.21,2.61-.5,8.78-2.43,16.38-9.89.15-.14.33-.21.53-.21Z"></path></g></svg>